<svg width="22" height="22" viewBox="0 0 22 22" fill="none" xmlns="http://www.w3.org/2000/svg">
<g clip-path="url(#clip0_22_5970)">
<mask id="mask0_22_5970" style="mask-type:alpha" maskUnits="userSpaceOnUse" x="0" y="0" width="22" height="22">
<path d="M0.00390625 0H21.9967V21.2344H0.00390625V0Z" fill="#35B2EC"/>
</mask>
<g mask="url(#mask0_22_5970)">
<path fill-rule="evenodd" clip-rule="evenodd" d="M18.2724 5.25452C18.1063 5.42073 17.9064 5.50497 17.6701 5.50497H4.33232C4.09379 5.50497 3.89427 5.42073 3.73 5.25452C3.56535 5.08831 3.48209 4.88605 3.48209 4.64509C3.48209 4.40565 3.56535 4.19808 3.73 4.02618C3.89427 3.85541 4.09379 3.76776 4.33232 3.76776H17.6701C17.9064 3.76776 18.1063 3.85541 18.2724 4.02618C18.4367 4.19808 18.52 4.40565 18.52 4.64509C18.52 4.88605 18.4367 5.08831 18.2724 5.25452ZM18.2724 9.1327C18.1063 9.29891 17.9064 9.38125 17.6701 9.38125L7.06754 9.38315C6.83088 9.38315 6.62761 9.30081 6.45771 9.1327C6.28744 8.96801 6.20231 8.76234 6.20231 8.521C6.20231 8.28345 6.28744 8.07778 6.45771 7.90588C6.62761 7.73208 6.83088 7.64594 7.06754 7.64594H17.6701C17.9064 7.64594 18.1063 7.73208 18.2724 7.90588C18.4367 8.07626 18.52 8.28345 18.52 8.521C18.52 8.76234 18.4367 8.96611 18.2724 9.1327ZM18.2724 12.9718C18.1063 13.1437 17.9064 13.2279 17.6701 13.2279H11.4882C11.2497 13.2279 11.0502 13.1437 10.8859 12.9718C10.7194 12.7976 10.6384 12.5938 10.6384 12.3525C10.6384 12.1131 10.7194 11.9112 10.8859 11.7431C11.0502 11.5784 11.2497 11.4922 11.4882 11.4922H17.6701C17.9064 11.4922 18.1063 11.5765 18.2724 11.7431C18.4367 11.9112 18.52 12.1131 18.52 12.3525C18.52 12.5938 18.4367 12.7976 18.2724 12.9718ZM21.8414 0H0.161051C0.057913 0 0.00390625 0.0542642 0.00390625 0.157101V19.0152C0.00390625 19.131 0.057913 19.1871 0.161051 19.1871H2.81676L12.9093 19.1852L13.2956 19.3742L15.9843 20.9054L16.5555 21.2344V20.9054V19.1852H18.2724H21.8414C21.9445 19.1852 21.9967 19.131 21.9967 19.0152V6.53523V4.64509V0.157101C21.9967 0.0542642 21.9445 0 21.8414 0Z" fill="#1AB9C9"/>
</g>
</g>
<defs>
<clipPath id="clip0_22_5970">
<rect width="21.9927" height="21.2344" fill="white" transform="translate(0.00390625)"/>
</clipPath>
</defs>
</svg>
